<svg id="Capa_1" enable-background="new 0 0 512 512" height="512" viewBox="0 0 512 512" width="512" xmlns="http://www.w3.org/2000/svg"><path d="m256.928 454.428-87.828-39.684-43.93-4.16 35.83-57.853v-46.249l95-34.438 95 34.438v46.249l35.805 57.812-38.959 3.76z" fill="#fabe8f"/><path d="m256.928 454.428 90.918-40.125 38.959-3.76-35.805-57.812v-46.249l-95-34.437v181.963z" fill="#f5af78"/><path d="m366 332h-43.944c-23.29 0-45.933-5.988-66.056-17.396-20.123 11.408-42.766 17.396-66.056 17.396h-43.944c-30.327 0-55-24.673-55-55 0-74.439 60.561-135 135-135h60c74.439 0 135 60.561 135 135 0 30.327-24.673 55-55 55z" fill="#ffd2af"/><path d="m286 142h-30v172.604c20.123 11.408 42.766 17.396 66.056 17.396h43.944c30.327 0 55-24.673 55-55 0-74.439-60.561-135-135-135z" fill="#fabe8f"/><path d="m346.018 272.002c-.819 0-1.649-.067-2.484-.207l-44.192-7.365c-14.018-2.336-26.433-9.884-34.958-21.252l-8.384-11.178-8.384 11.179c-8.525 11.368-20.94 18.916-34.958 21.252l-44.192 7.365c-8.174 1.364-15.9-4.158-17.262-12.33-1.362-8.171 4.158-15.9 12.33-17.262l44.192-7.365c6.371-1.062 12.014-4.493 15.89-9.66l20.384-27.179c2.833-3.777 7.279-6 12-6s9.167 2.223 12 6l20.384 27.179c3.875 5.167 9.519 8.598 15.89 9.66l44.191 7.365c8.172 1.362 13.692 9.09 12.33 17.262-1.222 7.337-7.577 12.536-14.777 12.536z" fill="#fabe8f"/><path d="m264.384 243.179c8.525 11.368 20.94 18.916 34.958 21.252l44.192 7.365c.835.139 1.665.207 2.484.207 7.2 0 13.555-5.2 14.778-12.537 1.362-8.171-4.158-15.9-12.33-17.262l-44.191-7.365c-6.372-1.062-12.015-4.493-15.89-9.66l-20.385-27.179c-2.833-3.777-7.279-6-12-6v40z" fill="#f5af78"/><path d="m256 172c-47.42 0-86-38.58-86-86s38.58-86 86-86 86 38.58 86 86-38.58 86-86 86z" fill="#fabe8f"/><path d="m342 86c0-47.42-38.58-86-86-86v172c47.42 0 86-38.58 86-86z" fill="#f5af78"/><path d="m313.029 512h-212.97c-38.08 0-69.059-30.979-69.059-69.059 0-20.771 9.213-40.238 25.277-53.407 16.063-13.168 36.957-18.387 57.326-14.311l208.834 41.767c22.344 4.469 38.563 24.252 38.563 47.039 0 26.451-21.52 47.971-47.971 47.971z" fill="#7de6ff"/><path d="m411.941 512h-212.97c-26.451 0-47.971-21.52-47.971-47.971 0-22.788 16.218-42.57 38.563-47.039l208.835-41.767c20.367-4.076 41.263 1.143 57.325 14.311 16.064 13.17 25.277 32.635 25.277 53.407 0 38.079-30.979 69.059-69.059 69.059z" fill="#5acdfa"/><path d="m455.724 389.535c-16.063-13.168-36.958-18.387-57.325-14.311l-142.399 28.479v108.297h155.941c38.08 0 69.059-30.98 69.059-69.059 0-20.772-9.213-40.237-25.276-53.406z" fill="#00beeb"/></svg>