<svg id="Layer_1" enable-background="new 0 0 512 512" height="512" viewBox="0 0 512 512" width="512" xmlns="http://www.w3.org/2000/svg"><path d="m430.084 492.044c-84.461 10.013-260.263 25.122-341.565-10.142-8.547-3.707-15.094-10.873-17.953-19.727-15.885-49.185-66.418-229.792-.715-362.234 1.994-4.019 2.562-8.585 1.573-12.96-1.856-8.207-3.999-22.489.29-32.965 9.591-23.43 80.62-77.89 134.364-20.845 14.897 15.812 14.804 42.294 11.772 62.726-2.19 14.759-18.198 23.049-31.522 16.291l-11.184-5.673c-7.341-3.724-16.234-2.553-22.312 2.999-6.721 6.138-16.64 13.132-27.864 14.342-20.287 36.518 45.428 199.619 28.645 249.842 0 0 36.963-53.989 102.995-45.587 47.922 6.098 66.476 56.326 66.476 56.326s49.443-88.073 130.125-77.9c8.817 1.112 15.555 8.411 15.995 17.271l5.733 115.283c1.327 26.67-18.273 49.802-44.853 52.953z" fill="#ffd3be"/><path d="m138.657 412.248s51.49-74.507 114.906-57.503c17.593 4.717 33.225 19.659 44.903 34.27 11.391 14.253 32.867 15.009 45.188 1.552 22.108-24.146 58.861-52.404 106.51-46.396 8.817 1.111 20.593 10.863 21.033 19.724l-1.994-40.087c-.441-8.861-7.178-16.16-15.995-17.271-80.683-10.173-130.125 77.9-130.125 77.9s-18.555-50.228-66.476-56.326c-66.032-8.403-101.168 33.914-117.95 84.137z" fill="#ffe7dc"/><path d="m474.937 439.091c-.175-3.52-.105-2.11-.247-4.956-7.593 14.952-22.572 25.905-40.739 28.003-72.445 8.363-210.32 20.276-302.431 3.423-28.419-5.199-50.772-27.181-56.705-55.458-16.434-78.317-28.1-196.054 18.364-289.715 1.994-4.02 2.562-8.585 1.572-12.96-1.856-8.207-3.998-22.489.29-32.966 8.466-20.683 64.809-65.53 114.875-36.522-1.892-2.523-.759-1.376-3.841-4.77-52.683-58.024-124.771-2.584-134.362 20.846-4.288 10.476-2.146 24.759-.29 32.965.989 4.375.421 8.941-1.573 12.96-65.702 132.441-15.168 313.048.716 362.234 2.86 8.854 9.406 16.019 17.953 19.727 81.3 35.263 256.94 18.682 341.565 10.142 24.051-2.427 46.254-24.795 44.853-52.953z" fill="#ffaea7"/><ellipse cx="112.319" cy="437.292" fill="#ffaea7" rx="7.269" ry="10.297" transform="matrix(.753 -.658 .658 .753 -259.892 181.757)"/><ellipse cx="108.319" cy="79.621" fill="#ffaea7" rx="6.856" ry="5.274" transform="matrix(.409 -.913 .913 .409 -8.627 145.925)"/><g fill="#231f20"><path d="m482.927 438.693-5.733-115.283c-.635-12.777-10.301-23.211-22.985-24.812-53.052-6.692-99.359 26.228-130.134 69.634-9.559-16.689-30.27-43.453-66.46-48.058-43.485-5.54-75.183 14.084-93.227 30.122-.749-61.417-44.473-185.104-33.794-219.289 11.478-2.612 21.2-9.715 27.63-15.587 3.585-3.276 8.929-3.989 13.297-1.772 6.271 2.113 20.181 14.989 38.411 5.57 8.633-4.463 14.402-12.535 15.828-22.149 4.585-30.9-.209-54.894-13.863-69.386-26.755-28.4-56.245-29.93-76.269-26.211-35.574 6.603-64.751 33.468-71.319 49.514-4.912 12.004-3.086 27.16-.688 37.759.576 2.55.244 5.263-.936 7.641-66.688 134.433-16.654 315.849.27 368.247 3.557 11.012 11.714 19.981 22.382 24.609 82.295 35.694 256.292 21.345 345.693 10.747 30.63-3.633 53.426-30.556 51.897-61.296zm-53.781 45.406c-74.492 8.829-256.488 25.576-337.443-9.538-6.451-2.798-11.381-8.209-13.523-14.846-35.068-108.561-51.953-253.838-1.162-356.219 2.809-5.662 3.594-12.154 2.209-18.28-2.633-11.641-2.673-21.908-.11-28.17 7.889-19.269 72.256-70.278 121.138-18.39 12.853 13.642 12.359 38.018 9.682 56.066-1.391 9.377-11.537 14.616-19.991 10.329l-11.184-5.673c-10.269-5.21-22.857-3.509-31.325 4.227-18.285 16.7-25.239 8.762-29.462 16.364-22.395 40.312 42.953 200.663 28.376 250.088-3.271 4.551-13.441 20.185-15.65 41.361-.493 4.731 3.219 8.831 7.967 8.831 4.045 0 7.518-3.059 7.947-7.171 2.111-20.24 13.195-41.107 38.892-59.175 21.397-15.044 44.982-21.048 70.091-17.857 38.462 4.894 56.369 42.655 59.484 49.948-1.927 4.195-3.928 8.911-5.823 14.017-1.536 4.143.576 8.746 4.719 10.283 4.124 1.528 8.74-.558 10.283-4.719 5.829-15.715 12.898-27.672 14.446-30.214 16.865-23.028 57.462-67.952 113.502-60.889 4.97.627 8.758 4.72 9.007 9.732l5.733 115.283c1.111 22.372-15.494 41.967-37.803 44.612z"/><path d="m255.393 360.341c-33.842-10.787-56.764 6.521-64.155 17.178-2.518 3.63-1.617 8.614 2.014 11.133 3.614 2.507 8.603 1.633 11.132-2.014.146-.211 14.996-20.982 46.15-11.053 4.212 1.341 8.71-.983 10.051-5.192 1.342-4.21-.983-8.71-5.192-10.052z"/><path d="m83.973 206.134c.305-4.408-3.02-8.229-7.427-8.533-4.437-.299-8.228 3.021-8.533 7.428-.355 5.123-8.346 126.128 22.154 181.808 2.114 3.858 6.968 5.305 10.86 3.173 3.875-2.123 5.295-6.986 3.173-10.861-28.251-51.571-20.31-171.807-20.227-173.015z"/><path d="m414.182 447.739c-57.342 17.342-141.325 11.699-142.164 11.641-4.404-.307-8.231 3.012-8.54 7.42-.31 4.407 3.011 8.231 7.418 8.541 41.453 2.912 105.303.602 147.917-12.287 4.229-1.278 6.621-5.744 5.342-9.973s-5.745-6.621-9.973-5.342z"/><path d="m88.243 166.044c1.796-8.471-9.683-13.299-14.489-6-3.236 4.795-.362 10.999 4.739 12.225 4.376 1.052 8.871-1.728 9.75-6.225z"/></g></svg>