<?xml version="1.0" encoding="iso-8859-1"?>
<!-- Generator: Adobe Illustrator 19.0.0, SVG Export Plug-In . SVG Version: 6.00 Build 0)  -->
<svg version="1.1" id="Capa_1" xmlns="http://www.w3.org/2000/svg" xmlns:xlink="http://www.w3.org/1999/xlink" x="0px" y="0px"
	 viewBox="0 0 512 512" style="enable-background:new 0 0 512 512;" xml:space="preserve">
<path style="fill:#FFB69E;" d="M359.371,5.831c-6.765-8.294-19.62-7.623-25.508,1.262l-49.711,75.018
	c-4.837,7.301-2.841,17.14,4.46,21.979c7.328,4.855,17.159,2.813,21.979-4.46l37.815-57.066l31.71,38.88
	c-0.067,0.032-62.177,29.566-103.493,49.212c-16.078,7.646-27.136,22.971-29.325,40.64l-23.33,188.272
	c-1.565,12.634,8.292,23.745,21.01,23.745c10.517,0,19.63-7.84,20.957-18.547l24.598-184.599l21.834,27.895l48.198,160.197
	c3.389,11.262,15.362,17.649,26.661,14.055c11.086-3.526,17.036-15.594,13.685-26.733l-46.618-154.944l60.282-30.551l-16.201,68.48
	c-0.366,1.547-0.497,3.14-0.39,4.726l5.1,75.016c0.594,8.732,8.154,15.342,16.897,14.746c8.738-0.594,15.34-8.159,14.746-16.897
	l-4.938-72.622l18.159-76.417c1.811-7.621,0.995-15.629-2.317-22.727l-35.894-76.956L359.371,5.831z"/>
<path style="fill:#AA321E;" d="M290.53,180.169l21.834,27.895c2.365,7.86,13.943,46.342,15.928,52.939l41.919-7.45l-15.92-52.914
	l-77.669-69.981c-16.078,7.646-27.136,22.971-29.325,40.64l-10.193,82.255l42.788,6.46
	C283.29,234.501,287.409,203.589,290.53,180.169z"/>
<path style="fill:#FF3C3C;" d="M354.29,200.638l60.282-30.551l-10.501,44.389l31.371,5.264c1.33-5.593,10.354-43.57,12.505-52.623
	c1.811-7.621,0.995-15.629-2.317-22.727l-7.693-16.493c-11.703,5.743-24.396-2.807-24.973-15.67
	c-0.308-6.872,4.257-12.986,10.288-15.814l-13.516-28.978l-32.74-40.044l-21.746,23.569l24.863,30.486
	c-0.067,0.032-62.177,29.565-103.493,49.212L354.29,200.638z"/>
<circle style="fill:#FFB69E;" cx="470.709" cy="88.192" r="36.696"/>
<path style="fill:#BA6746;" d="M151.575,102.74c-7.334-8.992-21.271-8.264-27.655,1.369l-53.895,81.332
	c-5.245,7.915-3.08,18.583,4.834,23.828c7.944,5.264,18.603,3.05,23.828-4.834l40.997-61.868l34.379,42.152
	c-0.073,0.034-67.41,32.053-112.204,53.354c-17.432,8.289-29.42,24.904-31.794,44.061L4.772,486.252
	c-1.697,13.697,8.989,25.744,22.777,25.744c11.403,0,21.282-8.501,22.72-20.108l26.669-200.136l23.672,30.243l52.255,173.68
	c3.674,12.21,16.654,19.135,28.905,15.239c12.018-3.823,18.47-16.907,14.836-28.983l-50.542-167.986l65.356-33.123l-17.564,74.244
	c-0.397,1.677-0.539,3.405-0.422,5.124l5.53,81.329c0.644,9.466,8.84,16.633,18.32,15.987c9.473-0.644,16.63-8.845,15.986-18.32
	l-5.353-78.735l19.687-82.849c1.963-8.262,1.078-16.944-2.511-24.64l-38.915-83.433L151.575,102.74z"/>
<path style="fill:#177D74;" d="M76.94,291.752l23.672,30.243c2.564,8.523,15.116,50.243,17.269,57.395l45.446-8.078l-17.261-57.368
	l-84.207-75.871c-17.432,8.289-29.42,24.904-31.794,44.061l-11.05,89.178l46.389,7.004C69.091,350.657,73.556,317.143,76.94,291.752
	z"/>
<path style="fill:#39AE96;" d="M146.066,313.944l65.356-33.123l-11.385,48.126l34.011,5.708
	c1.441-6.064,11.225-47.237,13.557-57.053c1.963-8.262,1.078-16.944-2.511-24.64l-8.34-17.881c-2.53,1.241-5.304,1.965-8.12,1.965
	c-10.627,0-18.495-8.685-18.955-18.955c-0.334-7.451,4.616-14.079,11.154-17.145l-14.654-31.417l-35.495-43.414l-23.577,25.553
	l26.956,33.052c-0.073,0.034-67.41,32.053-112.204,53.354L146.066,313.944z"/>
<circle style="fill:#BA6746;" cx="272.724" cy="193.867" r="39.784"/>
<g>
</g>
<g>
</g>
<g>
</g>
<g>
</g>
<g>
</g>
<g>
</g>
<g>
</g>
<g>
</g>
<g>
</g>
<g>
</g>
<g>
</g>
<g>
</g>
<g>
</g>
<g>
</g>
<g>
</g>
</svg>
