<svg height="496pt" viewBox="0 0 496 496" width="496pt" xmlns="http://www.w3.org/2000/svg"><g fill="#d3a06c"><path d="m120 344-56 144h-32l56-144zm0 0"/><path d="m144 344h32v144h-32zm0 0"/><path d="m232 344 56 144h-32l-56-144zm0 0"/><path d="m232 312v32h-144v-32zm0 0"/></g><path d="m312 280v32h-304v-32zm0 0" fill="#ff826e"/><path d="m200 8 32 32h80v32h-304v-32h80l32-32zm0 0" fill="#ff826e"/><path d="m252.800781 100.800781c3.039063-2.960937 7.121094-4.800781 11.679688-4.800781 4.800781 0 9.28125 2.078125 12.480469 5.601562l19.039062 21.757813v-51.359375h-272v208h272v-100l-4.480469-5.601562-39.917969-49.839844c-2.320312-2.957032-3.601562-6.636719-3.601562-10.320313v-1.757812c0-4.558594 1.839844-8.640625 4.800781-11.679688zm0 0" fill="#e6e9ed"/><path d="m224 168c22.078125 0 40 17.921875 40 40s-17.921875 40-40 40zm0 0" fill="#fcd770"/><path d="m224 208v40c-22.078125 0-40-17.921875-40-40zm0 0" fill="#ffc729"/><path d="m224 168v40h-40c0-22.078125 17.921875-40 40-40zm0 0" fill="#ef7385"/><path d="m408 280h-48v208h96v-208zm0 0" fill="#cf9e76"/><path d="m415.601562 166.71875c10.957032-3.757812 16.398438-14.71875 16.398438-14.71875l35.359375 5.039062c11.839844 1.679688 20.640625 11.839844 20.640625 23.761719v51.199219h-32v48h-96v-80h-40.320312c-4.878907 0-9.441407-2.238281-12.480469-6l-11.199219-14-4.480469-5.601562 28.402344-23.679688 8.078125 9.28125 56-8s5.441406 10.960938 16.398438 14.71875zm0 0" fill="#e6e9ed"/><path d="m416 168 8 64-16 16-16-16 8-64 .398438-1.28125c2.242187.800781 4.800781 1.28125 7.601562 1.28125s5.359375-.480469 7.601562-1.28125zm0 0" fill="#ef7385"/><path d="m488 232v72c0 8.800781-7.199219 16-16 16-4.398438 0-8.398438-1.761719-11.28125-4.71875-2.957031-2.882812-4.71875-6.882812-4.71875-11.28125v-72zm0 0" fill="#f0d0b4"/><path d="m432 128v24s-5.441406 10.960938-16.398438 14.71875c-2.242187.800781-4.800781 1.28125-7.601562 1.28125s-5.359375-.480469-7.601562-1.28125c-10.957032-3.757812-16.398438-14.71875-16.398438-14.71875v-24c6.640625 5.039062 14.960938 8 24 8s17.359375-2.960938 24-8zm0 0" fill="#f0d0b4"/><path d="m448 80v16c0 13.039062-6.320312 24.71875-16 32-6.640625 5.039062-14.960938 8-24 8s-17.359375-2.960938-24-8c-9.679688-7.28125-16-18.960938-16-32v-16c0-11.039062 4.480469-21.039062 11.679688-28.320312 7.28125-7.199219 17.28125-11.679688 28.320312-11.679688 22.078125 0 40 17.921875 40 40zm0 0" fill="#f0d0b4"/><path d="m319.921875 150.71875-28.402344 23.679688-39.917969-49.839844c-2.320312-2.957032-3.601562-6.636719-3.601562-10.320313v-1.757812c0-4.558594 1.839844-8.640625 4.800781-11.679688 3.039063-2.960937 7.121094-4.800781 11.679688-4.800781 4.800781 0 9.28125 2.078125 12.480469 5.601562l19.039062 21.757813v.082031zm0 0" fill="#f0d0b4"/><path d="m120 32h80v16h-80zm0 0"/><path d="m144 96h-16v88h-16v-64h-16v64h-16v-40h-16v40h-16v16h112v-16h-16zm0 0"/><path d="m48 216h16v16h-16zm0 0"/><path d="m80 216h80v16h-80zm0 0"/><path d="m472 328c13.230469 0 24-10.769531 24-24v-123.183594c0-15.824218-11.816406-29.441406-27.472656-31.679687l-28.527344-4.074219v-13.382812c9.792969-8.792969 16-21.503907 16-35.679688v-16c0-26.472656-21.527344-48-48-48s-48 21.527344-48 48v16c0 14.167969 6.207031 26.878906 16 35.679688v13.382812l-44.832031 6.410156-27.535157-31.472656h.367188v-40h16v-48h-84.6875l-32-32h-86.625l-32 32h-84.6875v48h16v192h-16v48h80v22.496094l-53.472656 137.503906h-26.527344v16h496v-16h-32v-153.472656c2.511719.898437 5.183594 1.472656 8 1.472656zm-56.425781-98.886719-7.574219 7.574219-7.574219-7.574219 6.644531-53.167969c.3125.007813.609376.054688.929688.054688s.617188-.046875.929688-.054688zm-39.574219-149.113281c0-17.648438 14.351562-32 32-32s32 14.351562 32 32v16c0 17.648438-14.351562 32-32 32s-32-14.351562-32-32zm32 64c5.617188 0 10.984375-1.023438 16-2.800781v8.601562c-1.984375 3.0625-7.496094 10.199219-16 10.199219-8.519531 0-14.039062-7.167969-16-10.199219v-8.601562c5.015625 1.777343 10.382812 2.800781 16 2.800781zm-27.945312 16.640625c2.425781 3.269531 6.234374 7.496094 11.464843 10.679687l-7.945312 63.566407 24.425781 24.425781 24.425781-24.425781-7.945312-63.566407c5.238281-3.191406 9.046875-7.410156 11.464843-10.679687l30.320313 4.328125c7.832031 1.121094 13.734375 7.933594 13.734375 15.839844v123.191406c0 4.40625-3.59375 8-8 8s-8-3.59375-8-8v-112h-16v80h-80v-80h-48.3125c-2.441406 0-4.71875-1.097656-6.246094-3l-55.578125-69.472656c-1.199219-1.503906-1.863281-3.390625-1.863281-5.320313v-1.695312c0-4.695313 3.816406-8.511719 8.503906-8.511719 2.457032 0 4.792969 1.054688 6.40625 2.902344l53.921875 61.625zm-244.054688 191.359375v128h-60.304688l49.777344-128zm16 0h16v128h-16zm32 0h10.527344l49.777344 128h-60.304688zm27.695312 0h14.832032l49.777344 128h-14.832032zm28.304688-9.503906v-22.496094h80v-48h-16v-69.960938c4.335938 3.777344 9.824219 5.960938 15.6875 5.960938h32.3125v272h-58.527344zm128-54.496094h32v192h-32zm-352-240h75.3125l32-32h73.375l32 32h75.3125v16h-288zm16 32h256v22.136719l-5.046875-5.769531c-4.65625-5.320313-11.378906-8.367188-18.449219-8.367188-13.503906 0-24.503906 11-24.503906 24.503906v1.695313c0 5.535156 1.902344 10.976562 5.367188 15.3125l42.632812 53.296875v89.191406h-256zm-16 208h288v16h-288zm208 32v16h-128v-16zm-130.527344 32h14.832032l-49.777344 128h-14.832032zm322.527344 128v-192h32v192zm0 0"/><path d="m224 160c-26.472656 0-48 21.527344-48 48s21.527344 48 48 48 48-21.527344 48-48-21.527344-48-48-48zm-8 17.136719v22.863281h-22.863281c2.910156-11.191406 11.671875-19.953125 22.863281-22.863281zm-22.863281 38.863281h22.863281v22.863281c-11.191406-2.910156-19.953125-11.671875-22.863281-22.863281zm38.863281 22.863281v-61.726562c13.761719 3.574219 24 16 24 30.863281s-10.238281 27.289062-24 30.863281zm0 0"/></svg>